<svg width="40" height="40" viewBox="0 0 40 40" fill="none" xmlns="http://www.w3.org/2000/svg">
<path d="M4.68293 8.66003C4.60887 6.53034 6.26793 4.56659 8.51074 4.56659H31.492C33.7348 4.56659 35.3939 6.53034 35.3198 8.66003C35.2486 10.7057 35.341 13.3557 36.0079 15.5163C36.677 17.6838 37.8051 19.0535 39.6529 19.2297V21.2257C37.8051 21.4019 36.677 22.7716 36.0079 24.9391C35.341 27.0997 35.2486 29.7497 35.3198 31.7953C35.3939 33.925 33.7348 35.8885 31.492 35.8885H8.51074C6.26793 35.8885 4.60887 33.9247 4.68293 31.7953C4.75418 29.7497 4.66168 27.0997 3.99449 24.9391C3.32574 22.7719 2.19449 21.4019 0.34668 21.2257V19.2297C2.19449 19.0538 3.32574 17.6838 3.99449 15.5163C4.66168 13.3557 4.75387 10.7057 4.68293 8.66003Z" fill="url(#paint0_linear_205_20)"/>
<g filter="url(#filter0_d_205_20)">
<path d="M20.972 28.6675C24.6029 28.6675 26.7909 26.8897 26.7909 23.9574C26.7909 21.7409 25.2297 20.1362 22.9116 19.8821V19.7898C24.6147 19.5127 25.9512 17.9311 25.9512 16.1648C25.9512 13.6481 23.9642 12.0087 20.9365 12.0087H14.124V28.6675H20.972ZM16.7733 14.1214H20.2978C22.2138 14.1214 23.3019 14.9757 23.3019 16.5227C23.3019 18.1736 22.0364 19.0971 19.742 19.0971H16.7733V14.1214ZM16.7733 26.5549V21.0712H20.2741C22.7815 21.0712 24.0825 21.9947 24.0825 23.7957C24.0825 25.5966 22.817 26.5549 20.4279 26.5549H16.7733Z" fill="url(#paint1_linear_205_20)"/>
<path d="M20.972 28.6675C24.6029 28.6675 26.7909 26.8897 26.7909 23.9574C26.7909 21.7409 25.2297 20.1362 22.9116 19.8821V19.7898C24.6147 19.5127 25.9512 17.9311 25.9512 16.1648C25.9512 13.6481 23.9642 12.0087 20.9365 12.0087H14.124V28.6675H20.972ZM16.7733 14.1214H20.2978C22.2138 14.1214 23.3019 14.9757 23.3019 16.5227C23.3019 18.1736 22.0364 19.0971 19.742 19.0971H16.7733V14.1214ZM16.7733 26.5549V21.0712H20.2741C22.7815 21.0712 24.0825 21.9947 24.0825 23.7957C24.0825 25.5966 22.817 26.5549 20.4279 26.5549H16.7733Z" stroke="white" stroke-width="0.24566"/>
</g>
<defs>
<filter id="filter0_d_205_20" x="10.0704" y="8.93801" width="20.7742" height="24.7656" filterUnits="userSpaceOnUse" color-interpolation-filters="sRGB">
<feFlood flood-opacity="0" result="BackgroundImageFix"/>
<feColorMatrix in="SourceAlpha" type="matrix" values="0 0 0 0 0 0 0 0 0 0 0 0 0 0 0 0 0 0 127 0" result="hardAlpha"/>
<feOffset dy="0.98264"/>
<feGaussianBlur stdDeviation="1.96528"/>
<feColorMatrix type="matrix" values="0 0 0 0 0 0 0 0 0 0 0 0 0 0 0 0 0 0 0.15 0"/>
<feBlend mode="normal" in2="BackgroundImageFix" result="effect1_dropShadow_205_20"/>
<feBlend mode="normal" in="SourceGraphic" in2="effect1_dropShadow_205_20" result="shape"/>
</filter>
<linearGradient id="paint0_linear_205_20" x1="6.18748" y1="5.39554" x2="40.5339" y2="32.6601" gradientUnits="userSpaceOnUse">
<stop stop-color="#9013FE"/>
<stop offset="1" stop-color="#6610F2"/>
</linearGradient>
<linearGradient id="paint1_linear_205_20" x1="15.3225" y1="13.105" x2="22.9994" y2="26.0889" gradientUnits="userSpaceOnUse">
<stop stop-color="white"/>
<stop offset="1" stop-color="#F1E5FC"/>
</linearGradient>
</defs>
</svg>
