<svg width="38" height="52" viewBox="0 0 38 52" fill="none" xmlns="http://www.w3.org/2000/svg">
<path d="M0.991211 10.5625L4.26924 47.3253L18.9779 51.4081L33.7276 47.32L37.0093 10.5625H0.991211ZM29.1078 31.0732L28.1531 39.9669L28.1567 40.7286L19.0003 43.2859V43.2863L18.993 43.2924L9.76337 40.7635L9.13896 33.7188H13.665L13.9859 37.2799L19.0019 38.6185L19.0003 38.6246V38.6116L24.0353 37.1918L24.5667 31.2812H14.042L13.9518 30.3245L13.7462 28.0304L13.6386 26.8125H24.9673L25.3792 22.3438H8.12455L8.03396 21.292L7.8284 18.8423L7.72074 17.4688H30.307L30.1986 18.8232L29.1078 31.0732ZM29.1565 5.83944L26.2522 2.4375H29.1565V0.40625H22.6565V2.17872L26.065 5.28125H22.6565V7.3125H29.1565V5.83944ZM21.4378 5.83944L18.6724 2.4375H21.4378V0.40625H15.344V2.17872L18.4856 5.28125H15.344V7.3125H21.4378V5.83944ZM14.1253 5.28125H10.8753V2.4375H14.1253V0.40625H8.43777V7.3125H14.1253V5.28125Z" fill="#1572B6"/>
</svg>
