<svg width="44" height="44" viewBox="0 0 44 44" fill="none" xmlns="http://www.w3.org/2000/svg">
<path d="M6.72656 9.28123L9.50647 40.1909L21.9808 43.5191L34.4899 40.2538L37.2729 9.28123H6.72656ZM31.4907 16.3181L31.3164 18.3236L31.2397 19.25H16.6066L16.9562 23.375H30.8918L30.7987 24.1419L29.8998 34.0794L29.8338 34.6603L21.9997 36.7689V36.7671L21.9904 36.7713L14.1608 34.7376L13.6294 28.875H17.4684L17.7403 31.7831L21.9977 32.8621L21.9997 32.7817V32.7858L26.2663 31.8752L26.7118 27.1562H13.4586L12.5187 16.5564L12.427 15.4687H31.5821L31.4907 16.3181ZM9.60959 0.559265H11.5422V2.46914H13.3104V0.559265H15.2433V6.34183H13.3104V4.40548H11.5425V6.34183H9.60959V0.559265ZM17.7847 2.47705H16.0831V0.559265H21.4198V2.47705H19.7176V6.34183H17.7847V2.47705ZM22.2668 0.559265H24.2819L25.5218 2.59117L26.7603 0.559265H28.7764V6.34183H26.8511V3.47564L25.5218 5.53161H25.4881L24.1578 3.47564V6.34183H22.2665V0.559265H22.2668ZM29.7386 0.559265H31.6718V4.43058H34.3898V6.34217H29.7386V0.559265Z" fill="#E44D26"/>
</svg>
