<svg width="40" height="40" viewBox="0 0 40 40" fill="none" xmlns="http://www.w3.org/2000/svg">
<path d="M0 0V40H40V0H0ZM21.1581 34.0842C20.5677 35.2838 19.4406 36.072 18.1347 36.4525C16.128 36.9133 14.2086 36.6506 12.7808 35.7936C11.8253 35.2074 11.079 34.305 10.5725 33.2653L13.6189 31.3997C13.6454 31.4109 13.7254 31.5555 13.8323 31.7424C14.2208 32.3933 14.5558 32.8541 15.2144 33.1776C15.8614 33.3984 17.2819 33.5395 17.8304 32.401C18.1654 31.8218 18.0589 29.96 18.0589 27.9002C18.0586 24.6634 18.0736 21.44 18.0736 18.24H21.8205C21.8205 21.76 21.8397 25.0938 21.8205 28.5286C21.8285 30.6342 22.0112 32.5114 21.1581 34.0842ZM36.7018 33.0256C35.3994 37.4806 28.1379 37.6253 25.2362 34.6819C24.623 33.9891 24.2387 33.6272 23.873 32.8275C25.415 31.9405 25.415 31.9405 26.9155 31.0723C27.7306 32.3251 28.4842 33.0141 29.84 33.296C31.6794 33.5206 33.5299 32.8886 33.1149 30.935C32.6883 29.3395 29.3485 28.9514 27.0755 27.2451C24.768 25.6954 24.2272 21.9296 26.1235 19.7779C26.7555 18.9821 27.8333 18.3882 28.9642 18.1027L30.1443 17.9501C32.4102 17.9043 33.8266 18.5027 34.8662 19.6637C35.1555 19.9568 35.3917 20.273 35.8333 20.9581C34.6262 21.7274 34.6301 21.72 32.9011 22.8394C32.5318 22.0438 31.919 21.5446 31.2714 21.3277C30.2659 21.023 28.9981 21.3542 28.735 22.4166C28.6438 22.744 28.6627 23.0486 28.8077 23.5894C29.215 24.5184 30.5821 24.9222 31.8083 25.4858C35.3382 26.9174 36.5302 28.4525 36.8234 30.2797C37.1056 31.8528 36.7552 32.8733 36.7018 33.0256Z" fill="#F0DB4F"/>
</svg>
