<svg width="75" height="38" viewBox="0 0 75 38" fill="none" xmlns="http://www.w3.org/2000/svg">
<path d="M37.5 0C16.7901 0 0 8.50677 0 19C0 29.4932 16.7901 38 37.5 38C58.2099 38 75 29.4932 75 19C75 8.50677 58.2099 0 37.5 0ZM27.7423 22.7017C26.8474 23.5387 25.8536 23.8842 24.7592 24.2402C23.6648 24.5967 22.272 24.5231 20.5785 24.5231H16.7404L15.6767 30.6598H11.1952L15.1942 9.79487H23.8121C26.4048 9.79487 28.2959 10.5405 29.4849 11.901C30.6738 13.2615 31.0311 15.1928 30.5572 17.6309C30.3614 18.6355 30.0318 19.5695 29.5665 20.4016C29.0844 21.2602 28.4686 22.0366 27.7423 22.7017ZM40.8232 24.5231L42.5915 15.6739C42.7929 14.638 42.7192 13.8684 42.37 13.4923C42.0201 13.1155 41.2761 12.8632 40.1388 12.8632H36.5848L34.2947 24.5231H29.8483L33.8472 4.27179H38.2937L37.2305 9.79487H41.1914C43.6841 9.79487 45.4028 10.295 46.3487 11.164C47.2945 12.0329 47.5781 13.2235 47.2 15.1701L45.3396 24.5231H40.8232ZM65.5345 17.6634C65.3393 18.668 65.009 19.5861 64.5444 20.4176C64.0791 21.2503 63.4715 22.0119 62.7208 22.7017C61.8258 23.5387 60.8315 23.8842 59.7377 24.2402C58.6438 24.5967 57.2499 24.5231 55.5564 24.5231H51.7183L50.6551 30.6598H46.1737L50.1721 9.79487H58.7906C61.3833 9.79487 63.2744 10.5405 64.4628 11.901C65.6505 13.2615 66.0083 15.2259 65.5345 17.6634ZM57.0921 12.8632H54.0225L52.3486 21.4547H55.0752C56.881 21.4547 58.2277 21.2767 59.1116 20.5956C59.9967 19.9156 60.5927 18.8601 60.9027 17.2688C61.1997 15.7402 61.0647 14.5478 60.4976 13.9194C59.9298 13.291 58.7948 12.8632 57.0921 12.8632ZM22.1143 12.8632H19.044L17.3702 21.4547H20.0961C21.9025 21.4547 23.2486 21.2767 24.1331 20.5956C25.0176 19.9156 25.6142 18.8601 25.9236 17.2688C26.2207 15.7402 26.0856 14.5478 25.5185 13.9194C24.9513 13.291 23.817 12.8632 22.1143 12.8632Z" fill="#6181B6"/>
</svg>
