<?xml version="1.0" encoding="UTF-8"?><svg id="Camada_1" xmlns="http://www.w3.org/2000/svg" viewBox="0 0 512 512"><defs><style>.cls-1{fill:#fbc402;}.cls-2{fill:#4a6091;}</style></defs><path class="cls-2" d="M117.39,79.4h-12.04c-24.93,0-31.46,12.19-31.46,42,0,27.89,2.43,52.19,2.43,83.59,0,29.31-7.5,44.56-27.56,50.09v1.85c20.07,5.53,27.56,20.19,27.56,50.09,0,31.41-2.43,55.7-2.43,83.59,0,29.81,6.53,42,31.46,42h12.04v21.68h-20.62c-36.59,0-53.87-13.69-53.87-61.5,0-33.44,4.03-57.77,4.03-89.27,0-17.43-8.4-35.19-39.66-35.53v-23.96c31.26-.34,39.66-18.11,39.66-36.11,0-30.92-4.03-55.25-4.03-88.69,0-47.81,17.28-61.5,53.87-61.5h20.62v21.68Z"/><path class="cls-2" d="M394.61,432.6h12.04c24.93,0,31.46-12.19,31.46-42,0-27.89-2.43-52.18-2.43-83.59,0-29.31,7.5-44.56,27.56-50.09v-1.84c-20.07-5.53-27.56-20.19-27.56-50.09,0-31.41,2.43-55.7,2.43-83.59,0-29.81-6.53-42-31.46-42h-12.04v-21.68h20.62c36.59,0,53.87,13.69,53.87,61.5,0,33.44-4.03,57.77-4.03,89.27,0,17.43,8.4,35.19,39.66,35.53v23.96c-31.26,.34-39.66,18.11-39.66,36.12,0,30.92,4.03,55.25,4.03,88.69,0,47.81-17.28,61.5-53.87,61.5h-20.62v-21.68Z"/><rect class="cls-2" x="253.36" y="315.43" width="101.43" height="101.43" rx="50.71" ry="50.71"/><g><path class="cls-1" d="M156,363.13l-27.25-27.53c23.91-5.56,42.27-23.08,42.27-57.56V140.95h43.1l-.28,140.15c0,48.66-31.42,75.91-57.84,82.03Z"/><path class="cls-1" d="M322.68,319.69c-6.2-1.42-12.4-2.84-18.61-4.26-5.98,1.35-11.96,2.69-17.94,4.04l-64.79-178.52h44.21l27.81,78.14c4.17,11.68,8.34,26.14,11.68,39.49h.56c3.34-13.07,7.51-27.53,11.68-39.49l27.81-78.14h40.6c-21,59.58-42,119.16-63,178.74Z"/></g></svg>